# xmcd CD database file
#
# Track frame offsets:
#	150
#	26292
#	41817
#	60388
#	75759
#	93796
#	112580
#	135127
#	157073
#	172976
#	193932
#	211747
#	232878
#	254828
#	276325
#	294637
#	315256
#	333285
#
# Disc length: 4698 seconds
#
# Revision: 5
# Processed by: cddbd v1.5.2PL0 Copyright (c) Steve Scherf et al.
# Submitted via: CDex 1.70beta2
#
DISCID=e2125812
DTITLE=Zucchero - Zu and Co. (Italy)
DYEAR=2004
DGENRE=Blues
TTITLE0=Dune Mosse (with Miles Davis)
TTITLE1=Muoio Per Te (with Sting)
TTITLE2=Indaco dagli occhi del cielo
TTITLE3=Il grande baboomba
TTITLE4=Like The Sun (with Macy Gray)
TTITLE5=Baila Morena (with Mana)
TTITLE6=Ali d'oro
TTITLE7=Blue (with Sheryl Crow)
TTITLE8=Pure Love (with Dolores O'Riordan)
TTITLE9=A Wonderful World (with Eric Clapton)
TTITLE10=Pippo - Nasty Guy (with Tom Jones)
TTITLE11=Hey Man - Sing A Song (with B.B. King)
TTITLE12=The Flight (with Ronan Keating)
TTITLE13=Cosi Celeste (with Cheb Mami)
TTITLE14=Diavolo In Me - A Devil In Me (with Solomon Burke)
TTITLE15=Senza Una Donna - Without A Woman (with Paul Young)
TTITLE16=Il Mare... (with Brian May)
TTITLE17=Miserere (with Luciano Pavarotti and Andrea Bocelli)
EXTD=YEAR: 2004
EXTT0=
EXTT1=
EXTT2=
EXTT3=
EXTT4=
EXTT5=
EXTT6=
EXTT7=
EXTT8=
EXTT9=
EXTT10=
EXTT11=
EXTT12=
EXTT13=
EXTT14=
EXTT15=
EXTT16=
EXTT17=
PLAYORDER=
